<svg width="264" height="264" viewBox="0 0 264 264" fill="none" xmlns="http://www.w3.org/2000/svg">
<path d="M130.419 244.234L129.532 258.753L127.774 258.645L128.169 252.18L120.428 251.707L120.033 258.173L118.275 258.065L119.162 243.547L120.92 243.654L120.523 250.148L128.264 250.621L128.661 244.127L130.419 244.234Z" fill="#62D6AD"/>
<path d="M110.882 242.26L107.673 256.447L99.1106 254.51L99.4553 252.986L106.299 254.534L107.384 249.74L100.983 248.293L101.328 246.769L107.728 248.216L108.819 243.395L101.864 241.822L102.209 240.298L110.882 242.26Z" fill="#62D6AD"/>
<path d="M94.7672 237.991L89.4964 251.548L87.8548 250.91L92.5593 238.809L86.2575 236.359L86.8237 234.903L94.7672 237.991Z" fill="#62D6AD"/>
<path d="M79.4606 231.388L72.2438 244.017L70.7146 243.143L77.1561 231.871L71.2856 228.516L72.0608 227.159L79.4606 231.388Z" fill="#62D6AD"/>
<path d="M51.1655 220.558C52.136 219.37 53.1893 218.518 54.3252 218.003C55.4612 217.489 56.5949 217.302 57.7264 217.444C58.8578 217.585 59.9039 218.049 60.8646 218.833C61.8253 219.618 62.488 220.551 62.8526 221.631C63.2172 222.712 63.2606 223.86 62.9827 225.076C62.7047 226.292 62.0805 227.494 61.11 228.682C60.1394 229.87 59.0862 230.721 57.9502 231.236C56.8142 231.751 55.6805 231.938 54.5491 231.796C53.4176 231.654 52.3715 231.191 51.4108 230.406C50.4501 229.621 49.7874 228.689 49.4228 227.608C49.0582 226.528 49.0149 225.38 49.2928 224.164C49.5707 222.948 50.1949 221.746 51.1655 220.558ZM52.4855 221.636C51.6887 222.612 51.1794 223.568 50.9576 224.506C50.7321 225.44 50.7554 226.306 51.0275 227.103C51.296 227.897 51.7712 228.573 52.4533 229.13C53.1353 229.687 53.8939 230.02 54.7292 230.127C55.5608 230.232 56.4139 230.082 57.2884 229.678C58.1593 229.27 58.9931 228.579 59.7899 227.603C60.5867 226.628 61.0978 225.673 61.3233 224.738C61.5452 223.801 61.5219 222.935 61.2534 222.141C60.9813 221.344 60.5042 220.667 59.8222 220.11C59.1402 219.552 58.3833 219.221 57.5517 219.117C56.7165 219.009 55.8634 219.159 54.9925 219.567C54.118 219.971 53.2823 220.661 52.4855 221.636Z" fill="#62D6AD"/>
<path d="M41.2221 198.783L31.3881 210.215L30.3872 208.731L38.5081 199.586L38.4286 199.468L26.876 203.526L25.7639 201.878L33.853 192.685L33.7735 192.568L22.2527 196.673L21.2518 195.189L35.5343 190.352L36.5511 191.859L28.7375 201.002L28.8011 201.097L40.2052 197.276L41.2221 198.783Z" fill="#62D6AD"/>
<path d="M18.8594 172.421C20.2741 171.828 21.6038 171.571 22.8486 171.649C24.0933 171.728 25.1819 172.096 26.1144 172.752C27.0468 173.408 27.753 174.308 28.2328 175.452C28.7126 176.596 28.8598 177.731 28.6745 178.856C28.4892 179.981 27.9884 181.015 27.1722 181.958C26.356 182.901 25.2405 183.67 23.8258 184.263C22.4111 184.856 21.0814 185.114 19.8367 185.035C18.592 184.956 17.5034 184.589 16.5709 183.932C15.6384 183.276 14.9323 182.376 14.4525 181.232C13.9727 180.088 13.8254 178.953 14.0108 177.828C14.1961 176.703 14.6968 175.669 15.5131 174.726C16.3293 173.783 17.4447 173.015 18.8594 172.421ZM19.5187 173.993C18.3572 174.48 17.4585 175.086 16.8224 175.81C16.1845 176.529 15.7986 177.304 15.6647 178.136C15.5289 178.963 15.6314 179.782 15.972 180.595C16.3126 181.407 16.8264 182.056 17.5133 182.544C18.1985 183.026 19.0221 183.295 19.9841 183.348C20.9443 183.397 22.0051 183.178 23.1666 182.691C24.328 182.204 25.2277 181.601 25.8656 180.881C26.5017 180.158 26.8876 179.382 27.0233 178.555C27.1572 177.724 27.0539 176.902 26.7133 176.09C26.3727 175.278 25.8598 174.63 25.1746 174.147C24.4877 173.66 23.6641 173.392 22.7039 173.343C21.7419 173.289 20.6801 173.506 19.5187 173.993Z" fill="#62D6AD"/>
<path d="M23.1018 161.61L8.92936 164.883L7.82353 160.094C7.56785 158.987 7.54712 158.034 7.76136 157.237C7.97099 156.44 8.36394 155.795 8.94021 155.302C9.51648 154.81 10.2221 154.467 11.0572 154.274C11.8922 154.081 12.6721 154.081 13.3968 154.273C14.1215 154.465 14.7499 154.872 15.282 155.493C15.8094 156.114 16.1999 156.974 16.4535 158.072L17.3484 161.947L15.7983 162.305L14.9162 158.485C14.7414 157.729 14.4901 157.145 14.1621 156.735C13.8331 156.32 13.4416 156.056 12.9877 155.942C12.5281 155.825 12.0145 155.832 11.4471 155.963C10.8796 156.094 10.4082 156.314 10.0328 156.625C9.65733 156.935 9.40808 157.349 9.28501 157.869C9.15732 158.389 9.1819 159.032 9.35875 159.798L10.0555 162.815L22.7055 159.894L23.1018 161.61ZM15.1948 156.409L20.7559 151.451L21.2162 153.444L15.6423 158.347L15.1948 156.409Z" fill="#62D6AD"/>
<path d="M19.7775 144.267L5.27211 145.345L5.1415 143.589L18.0887 142.626L17.5873 135.883L19.1455 135.767L19.7775 144.267Z" fill="#62D6AD"/>
<path d="M19.4722 123.16L19.0812 127.632L4.59105 126.365L4.99939 121.695C5.1223 120.289 5.51757 119.112 6.18519 118.163C6.84808 117.213 7.74292 116.519 8.86968 116.08C9.99173 115.641 11.3027 115.488 12.8027 115.619C14.3121 115.751 15.5881 116.133 16.6306 116.766C17.6685 117.399 18.4349 118.255 18.9299 119.334C19.4201 120.413 19.6009 121.689 19.4722 123.16ZM17.6781 125.741L17.9058 123.137C18.0105 121.939 17.8662 120.926 17.4729 120.098C17.0795 119.27 16.4728 118.625 15.6529 118.164C14.833 117.702 13.8334 117.42 12.6542 117.317C11.4844 117.214 10.4607 117.317 9.58295 117.626C8.70051 117.933 7.99968 118.447 7.48045 119.167C6.95651 119.887 6.64504 120.812 6.54605 121.944L6.30105 124.746L17.6781 125.741Z" fill="#62D6AD"/>
<path d="M23.1235 93.1819C22.9299 93.7211 22.6217 94.1664 22.1988 94.5176C21.7714 94.8673 21.2869 95.0958 20.7453 95.2032C20.2053 95.3061 19.6657 95.2608 19.1264 95.0672C18.5827 94.8721 18.1375 94.5638 17.7907 94.1425C17.4411 93.7151 17.2148 93.2314 17.1118 92.6914C17.0044 92.1498 17.0475 91.6094 17.2411 91.0701C17.4363 90.5265 17.7468 90.082 18.1725 89.7368C18.5954 89.3856 19.0769 89.1585 19.6169 89.0555C20.1541 88.9465 20.6945 88.9896 21.2382 89.1848C21.7774 89.3784 22.2219 89.6889 22.5715 90.1162C22.9228 90.5391 23.1521 91.0214 23.2595 91.563C23.364 92.0986 23.3187 92.6382 23.1235 93.1819Z" fill="#62D6AD"/>
<path d="M35.6678 72.78L23.6803 64.5417L24.6779 63.0901L30.0161 66.7587L34.4087 60.367L29.0706 56.6983L30.0682 55.2467L42.0557 63.485L41.0581 64.9366L35.6965 61.2519L31.3038 67.6437L36.6654 71.3284L35.6678 72.78Z" fill="#62D6AD"/>
<path d="M47.4239 57.0513L36.9166 46.9931L42.9868 40.6518L44.1155 41.7323L39.2633 46.8012L42.8136 50.1998L47.3515 45.4592L48.4803 46.5396L43.9423 51.2802L47.5132 54.6984L52.444 49.5474L53.5727 50.6278L47.4239 57.0513Z" fill="#62D6AD"/>
<path d="M59.383 45.4375L50.4778 33.9368L51.8705 32.8584L59.8191 43.1237L65.1651 38.9842L66.1217 40.2196L59.383 45.4375Z" fill="#62D6AD"/>
<path d="M72.927 35.7191L65.8196 23.0283L67.3564 22.1677L73.7003 33.4951L79.5995 30.1913L80.363 31.5546L72.927 35.7191Z" fill="#62D6AD"/>
<path d="M96.7845 17.0447C97.3029 18.4885 97.4902 19.8299 97.3464 21.0688C97.2027 22.3077 96.7786 23.3755 96.0743 24.2724C95.3701 25.1692 94.4341 25.8272 93.2666 26.2464C92.099 26.6656 90.9583 26.7532 89.8444 26.5092C88.7305 26.2652 87.7241 25.7109 86.8251 24.8465C85.9261 23.982 85.2174 22.8278 84.699 21.384C84.1806 19.9401 83.9933 18.5988 84.137 17.3599C84.2808 16.121 84.7049 15.0531 85.4091 14.1563C86.1134 13.2595 87.0493 12.6015 88.2169 12.1823C89.3844 11.7631 90.5252 11.6755 91.6391 11.9195C92.7529 12.1635 93.7594 12.7177 94.6584 13.5822C95.5574 14.4467 96.2661 15.6008 96.7845 17.0447ZM95.1802 17.6207C94.7546 16.4353 94.1971 15.5061 93.5077 14.833C92.8227 14.1583 92.0686 13.7323 91.2453 13.555C90.4264 13.3761 89.6026 13.4355 88.7737 13.7331C87.9448 14.0307 87.2691 14.5097 86.7466 15.1702C86.2286 15.8291 85.9177 16.6375 85.8139 17.5954C85.7145 18.5517 85.8776 19.6226 86.3033 20.808C86.7289 21.9933 87.2841 22.9234 87.9691 23.5981C88.6585 24.2712 89.4127 24.6972 90.2315 24.8761C91.0548 25.0534 91.8809 24.9932 92.7098 24.6956C93.5386 24.398 94.2121 23.9197 94.7301 23.2608C95.2526 22.6003 95.5636 21.7919 95.6629 20.8356C95.7667 19.8777 95.6058 18.8061 95.1802 17.6207Z" fill="#62D6AD"/>
<path d="M120.57 19.7379L115.837 5.42055L117.624 5.32688L121.28 16.9981L121.422 16.9907L123.894 4.99828L125.88 4.8942L129.593 16.5625L129.734 16.5551L132.15 4.56561L133.937 4.47194L130.727 19.2056L128.911 19.3008L125.099 7.89377L124.985 7.89971L122.386 19.6428L120.57 19.7379Z" fill="#62D6AD"/>
<path d="M154.685 14.1487C154.464 15.6669 154 16.9392 153.291 17.9656C152.583 18.9919 151.707 19.7357 150.664 20.1969C149.621 20.6581 148.486 20.7996 147.258 20.6216C146.031 20.4436 144.982 19.9854 144.113 19.247C143.244 18.5086 142.616 17.5468 142.228 16.3614C141.84 15.1761 141.756 13.8243 141.977 12.3061C142.197 10.7878 142.661 9.51555 143.37 8.48918C144.078 7.46282 144.954 6.71904 145.997 6.25786C147.04 5.79667 148.175 5.65509 149.403 5.8331C150.63 6.01111 151.679 6.46932 152.548 7.20771C153.417 7.9461 154.045 8.90798 154.433 10.0933C154.821 11.2787 154.905 12.6305 154.685 14.1487ZM152.998 13.9041C153.178 12.6576 153.122 11.5754 152.83 10.6575C152.542 9.74016 152.076 9.00998 151.432 8.46692C150.793 7.92453 150.038 7.59015 149.166 7.46378C148.295 7.3374 147.473 7.44315 146.702 7.78103C145.935 8.11958 145.281 8.68738 144.74 9.48442C144.203 10.2821 143.844 11.3042 143.663 12.5506C143.483 13.7971 143.536 14.879 143.824 15.7963C144.117 16.7142 144.583 17.4444 145.222 17.9868C145.866 18.5299 146.623 18.8646 147.495 18.991C148.366 19.1173 149.186 19.0112 149.952 18.6727C150.724 18.3348 151.378 17.767 151.914 16.9693C152.456 16.1723 152.817 15.1505 152.998 13.9041Z" fill="#62D6AD"/>
<path d="M161.766 23.3538L166.261 9.52026L170.935 11.0391C172.016 11.3902 172.843 11.8631 173.417 12.4577C173.992 13.0478 174.342 13.7167 174.467 14.4644C174.593 15.2121 174.523 15.9935 174.258 16.8085C173.993 17.6236 173.592 18.2922 173.054 18.8144C172.516 19.3365 171.844 19.6658 171.038 19.8022C170.233 19.934 169.295 19.8259 168.223 19.4776L164.441 18.2485L164.932 16.7355L168.661 17.947C169.399 18.187 170.029 18.2721 170.549 18.2022C171.074 18.1339 171.503 17.9345 171.834 17.604C172.171 17.2706 172.43 16.8269 172.61 16.273C172.79 15.7191 172.844 15.2014 172.771 14.7198C172.699 14.2382 172.472 13.8109 172.09 13.438C171.71 13.0606 171.146 12.7504 170.398 12.5075L167.453 11.5506L163.441 23.8981L161.766 23.3538ZM170.297 19.2553L171.682 26.5757L169.737 25.9436L168.405 18.6407L170.297 19.2553Z" fill="#62D6AD"/>
<path d="M178.344 29.4379L184.891 16.4492L186.464 17.242L180.62 28.8354L186.658 31.8788L185.955 33.2741L178.344 29.4379Z" fill="#62D6AD"/>
<path d="M196.593 40.0479L192.961 37.4094L201.511 25.6421L205.303 28.3974C206.445 29.2268 207.25 30.172 207.72 31.2332C208.193 32.2906 208.327 33.4151 208.122 34.6068C207.921 35.7946 207.377 36.9976 206.492 38.2157C205.602 39.4415 204.616 40.3382 203.537 40.9057C202.46 41.4695 201.332 41.6855 200.151 41.5537C198.974 41.4182 197.788 40.9162 196.593 40.0479ZM195.305 37.1807L197.419 38.717C198.392 39.4239 199.335 39.8221 200.247 39.9115C201.16 40.0009 202.025 39.813 202.843 39.3479C203.661 38.8828 204.417 38.1714 205.113 37.2138C205.803 36.2638 206.242 35.3333 206.43 34.4222C206.621 33.5073 206.542 32.6419 206.192 31.8261C205.845 31.0064 205.212 30.2626 204.293 29.5947L202.018 27.9415L195.305 37.1807Z" fill="#62D6AD"/>
<path d="M220.407 58.619C220.045 58.1754 219.822 57.6818 219.739 57.1384C219.659 56.592 219.713 56.059 219.9 55.5394C220.09 55.0235 220.406 54.5843 220.85 54.2219C221.297 53.8564 221.791 53.6335 222.331 53.5533C222.877 53.4737 223.408 53.5289 223.924 53.7188C224.444 53.9058 224.885 54.2211 225.247 54.6648C225.613 55.1121 225.834 55.6071 225.91 56.1499C225.994 56.6933 225.94 57.2229 225.75 57.7389C225.567 58.2554 225.252 58.6964 224.804 59.0619C224.361 59.4244 223.866 59.6454 223.319 59.725C222.776 59.8082 222.244 59.7564 221.725 59.5694C221.212 59.3832 220.773 59.0664 220.407 58.619Z" fill="#62D6AD"/>
<path d="M231.433 79.8801L244.669 73.8487L245.399 75.4515L239.505 78.1374L242.721 85.1948L248.615 82.5089L249.346 84.1117L236.11 90.1432L235.379 88.5404L241.299 85.8427L238.083 78.7853L232.163 81.4829L231.433 79.8801Z" fill="#62D6AD"/>
<path d="M238.859 98.0584L252.893 94.2331L255.201 102.702L253.694 103.113L251.848 96.3434L247.107 97.6359L248.832 103.967L247.325 104.378L245.599 98.0468L240.83 99.3469L242.705 106.227L241.198 106.637L238.859 98.0584Z" fill="#62D6AD"/>
<path d="M242.654 114.291L257.098 112.582L257.305 114.331L244.412 115.857L245.207 122.571L243.655 122.755L242.654 114.291Z" fill="#62D6AD"/>
<path d="M244.007 130.906L258.546 131.351L258.492 133.112L245.515 132.714L245.308 139.473L243.747 139.425L244.007 130.906Z" fill="#62D6AD"/>
<path d="M247.725 160.974C246.22 160.675 244.974 160.144 243.986 159.383C242.998 158.622 242.302 157.708 241.896 156.643C241.49 155.577 241.408 154.436 241.65 153.219C241.892 152.002 242.404 150.98 243.187 150.151C243.97 149.321 244.964 148.744 246.168 148.419C247.372 148.094 248.726 148.081 250.231 148.38C251.735 148.679 252.981 149.21 253.969 149.971C254.957 150.733 255.654 151.646 256.06 152.712C256.466 153.777 256.548 154.918 256.306 156.135C256.064 157.352 255.551 158.375 254.768 159.204C253.985 160.033 252.992 160.61 251.788 160.935C250.584 161.261 249.229 161.274 247.725 160.974ZM248.058 159.302C249.293 159.548 250.376 159.549 251.308 159.305C252.24 159.065 252.993 158.638 253.569 158.024C254.144 157.414 254.518 156.677 254.69 155.814C254.862 154.95 254.799 154.124 254.502 153.336C254.204 152.552 253.671 151.87 252.904 151.287C252.135 150.709 251.133 150.298 249.898 150.052C248.663 149.806 247.58 149.803 246.648 150.043C245.716 150.287 244.963 150.714 244.388 151.324C243.812 151.938 243.438 152.677 243.266 153.541C243.094 154.404 243.157 155.228 243.455 156.011C243.752 156.8 244.285 157.482 245.053 158.06C245.821 158.643 246.822 159.057 248.058 159.302Z" fill="#62D6AD"/>
<path d="M233.165 179.975L247.875 183.292L247.034 184.873L235.148 181.994L235.081 182.12L244.087 190.416L243.153 192.172L231.239 189.343L231.173 189.469L240.205 197.715L239.365 199.295L228.39 188.954L229.243 187.349L240.984 189.957L241.038 189.856L232.311 181.58L233.165 179.975Z" fill="#62D6AD"/>
<path d="M220.384 212.094C219.196 211.123 218.344 210.07 217.83 208.934C217.315 207.798 217.128 206.664 217.27 205.533C217.412 204.401 217.876 203.355 218.66 202.395C219.445 201.434 220.378 200.772 221.459 200.407C222.539 200.043 223.687 199.999 224.903 200.278C226.119 200.556 227.321 201.18 228.509 202.151C229.697 203.121 230.548 204.175 231.063 205.311C231.577 206.447 231.764 207.581 231.622 208.712C231.48 209.843 231.017 210.889 230.232 211.85C229.447 212.811 228.514 213.473 227.434 213.838C226.353 214.202 225.205 214.245 223.989 213.967C222.773 213.689 221.571 213.065 220.384 212.094ZM221.462 210.774C222.437 211.571 223.394 212.081 224.331 212.303C225.266 212.528 226.132 212.505 226.929 212.233C227.723 211.965 228.399 211.489 228.956 210.807C229.513 210.126 229.846 209.367 229.953 208.532C230.058 207.7 229.908 206.847 229.504 205.972C229.097 205.101 228.405 204.268 227.43 203.471C226.455 202.674 225.5 202.162 224.565 201.937C223.628 201.715 222.762 201.738 221.968 202.006C221.171 202.278 220.494 202.755 219.936 203.437C219.379 204.119 219.048 204.876 218.943 205.708C218.836 206.543 218.985 207.396 219.393 208.267C219.797 209.141 220.487 209.977 221.462 210.774Z" fill="#62D6AD"/>
<path d="M208.846 213.422L218.388 224.401L214.678 227.625C213.821 228.37 212.989 228.836 212.184 229.021C211.382 229.21 210.629 229.165 209.923 228.888C209.218 228.61 208.584 228.148 208.022 227.501C207.459 226.854 207.093 226.166 206.923 225.436C206.752 224.706 206.816 223.96 207.114 223.199C207.416 222.441 207.992 221.693 208.842 220.954L211.844 218.344L212.888 219.545L209.929 222.117C209.343 222.626 208.946 223.122 208.737 223.604C208.525 224.09 208.476 224.559 208.588 225.014C208.7 225.475 208.947 225.925 209.329 226.364C209.712 226.804 210.128 227.117 210.578 227.303C211.028 227.488 211.511 227.514 212.027 227.379C212.547 227.247 213.103 226.924 213.696 226.408L216.033 224.377L207.516 214.578L208.846 213.422ZM207.965 222.846L200.977 220.262L202.521 218.92L209.466 221.541L207.965 222.846Z" fill="#62D6AD"/>
<path d="M195.092 224.498L202.853 236.8L201.363 237.74L194.436 226.76L188.717 230.367L187.884 229.046L195.092 224.498Z" fill="#62D6AD"/>
<path d="M176.598 234.674L180.73 232.921L186.412 246.311L182.097 248.142C180.798 248.693 179.573 248.897 178.422 248.753C177.272 248.613 176.239 248.149 175.323 247.36C174.409 246.575 173.658 245.489 173.069 244.103C172.477 242.709 172.216 241.402 172.286 240.185C172.357 238.971 172.753 237.893 173.474 236.949C174.197 236.01 175.238 235.252 176.598 234.674ZM179.719 235.047L177.313 236.068C176.206 236.538 175.379 237.141 174.833 237.877C174.286 238.613 174.001 239.452 173.979 240.392C173.956 241.333 174.176 242.348 174.638 243.437C175.097 244.518 175.669 245.374 176.353 246.004C177.039 246.639 177.821 247.017 178.701 247.137C179.582 247.262 180.545 247.103 181.592 246.659L184.181 245.56L179.719 235.047Z" fill="#62D6AD"/>
<path d="M148.413 245.521C148.98 245.439 149.518 245.502 150.027 245.711C150.536 245.924 150.965 246.244 151.314 246.672C151.659 247.101 151.872 247.599 151.954 248.166C152.037 248.737 151.974 249.275 151.764 249.779C151.551 250.288 151.23 250.715 150.802 251.06C150.374 251.409 149.876 251.624 149.309 251.706C148.738 251.789 148.2 251.724 147.695 251.51C147.186 251.301 146.76 250.983 146.415 250.554C146.067 250.131 145.851 249.634 145.769 249.062C145.686 248.495 145.752 247.957 145.965 247.447C146.174 246.939 146.492 246.51 146.92 246.161C147.344 245.817 147.841 245.604 148.413 245.521Z" fill="#62D6AD"/>
</svg>
