<svg id="visual" viewBox="0 0 960 300" width="960" height="300" xmlns="http://www.w3.org/2000/svg" xmlns:xlink="http://www.w3.org/1999/xlink" version="1.1"><rect x="0" y="0" width="960" height="300" fill="#1e1f21"></rect><path d="M0 192L22.8 197.3C45.7 202.7 91.3 213.3 137 212.8C182.7 212.3 228.3 200.7 274 200.3C319.7 200 365.3 211 411.2 210.5C457 210 503 198 548.8 193C594.7 188 640.3 190 686 189.7C731.7 189.3 777.3 186.7 823 187.7C868.7 188.7 914.3 193.3 937.2 195.7L960 198L960 301L937.2 301C914.3 301 868.7 301 823 301C777.3 301 731.7 301 686 301C640.3 301 594.7 301 548.8 301C503 301 457 301 411.2 301C365.3 301 319.7 301 274 301C228.3 301 182.7 301 137 301C91.3 301 45.7 301 22.8 301L0 301Z" fill="#62d6ad"></path><path d="M0 237L22.8 233.8C45.7 230.7 91.3 224.3 137 220.7C182.7 217 228.3 216 274 219.7C319.7 223.3 365.3 231.7 411.2 229.7C457 227.7 503 215.3 548.8 208.2C594.7 201 640.3 199 686 204.2C731.7 209.3 777.3 221.7 823 223.5C868.7 225.3 914.3 216.7 937.2 212.3L960 208L960 301L937.2 301C914.3 301 868.7 301 823 301C777.3 301 731.7 301 686 301C640.3 301 594.7 301 548.8 301C503 301 457 301 411.2 301C365.3 301 319.7 301 274 301C228.3 301 182.7 301 137 301C91.3 301 45.7 301 22.8 301L0 301Z" fill="#00bcc9"></path><path d="M0 245L22.8 243.2C45.7 241.3 91.3 237.7 137 233.2C182.7 228.7 228.3 223.3 274 225.2C319.7 227 365.3 236 411.2 238C457 240 503 235 548.8 231C594.7 227 640.3 224 686 223.3C731.7 222.7 777.3 224.3 823 225C868.7 225.7 914.3 225.3 937.2 225.2L960 225L960 301L937.2 301C914.3 301 868.7 301 823 301C777.3 301 731.7 301 686 301C640.3 301 594.7 301 548.8 301C503 301 457 301 411.2 301C365.3 301 319.7 301 274 301C228.3 301 182.7 301 137 301C91.3 301 45.7 301 22.8 301L0 301Z" fill="#009bcf"></path><path d="M0 261L22.8 262.2C45.7 263.3 91.3 265.7 137 265C182.7 264.3 228.3 260.7 274 258.3C319.7 256 365.3 255 411.2 255.8C457 256.7 503 259.3 548.8 261.7C594.7 264 640.3 266 686 265.3C731.7 264.7 777.3 261.3 823 257C868.7 252.7 914.3 247.3 937.2 244.7L960 242L960 301L937.2 301C914.3 301 868.7 301 823 301C777.3 301 731.7 301 686 301C640.3 301 594.7 301 548.8 301C503 301 457 301 411.2 301C365.3 301 319.7 301 274 301C228.3 301 182.7 301 137 301C91.3 301 45.7 301 22.8 301L0 301Z" fill="#0075c9"></path><path d="M0 263L22.8 263.8C45.7 264.7 91.3 266.3 137 267.3C182.7 268.3 228.3 268.7 274 268.2C319.7 267.7 365.3 266.3 411.2 267.2C457 268 503 271 548.8 272.3C594.7 273.7 640.3 273.3 686 271.3C731.7 269.3 777.3 265.7 823 264.2C868.7 262.7 914.3 263.3 937.2 263.7L960 264L960 301L937.2 301C914.3 301 868.7 301 823 301C777.3 301 731.7 301 686 301C640.3 301 594.7 301 548.8 301C503 301 457 301 411.2 301C365.3 301 319.7 301 274 301C228.3 301 182.7 301 137 301C91.3 301 45.7 301 22.8 301L0 301Z" fill="#0049b5"></path></svg>