<svg id="visual" viewBox="0 0 960 300" width="960" height="300" xmlns="http://www.w3.org/2000/svg" xmlns:xlink="http://www.w3.org/1999/xlink" version="1.1"><rect x="0" y="0" width="960" height="300" fill="#1e1f21"></rect><path d="M0 106L22.8 100.7C45.7 95.3 91.3 84.7 137 85.2C182.7 85.7 228.3 97.3 274 97.7C319.7 98 365.3 87 411.2 87.5C457 88 503 100 548.8 105C594.7 110 640.3 108 686 108.3C731.7 108.7 777.3 111.3 823 110.3C868.7 109.3 914.3 104.7 937.2 102.3L960 100L960 0L937.2 0C914.3 0 868.7 0 823 0C777.3 0 731.7 0 686 0C640.3 0 594.7 0 548.8 0C503 0 457 0 411.2 0C365.3 0 319.7 0 274 0C228.3 0 182.7 0 137 0C91.3 0 45.7 0 22.8 0L0 0Z" fill="#62d6ad"></path><path d="M0 61L22.8 64.2C45.7 67.3 91.3 73.7 137 77.3C182.7 81 228.3 82 274 78.3C319.7 74.7 365.3 66.3 411.2 68.3C457 70.3 503 82.7 548.8 89.8C594.7 97 640.3 99 686 93.8C731.7 88.7 777.3 76.3 823 74.5C868.7 72.7 914.3 81.3 937.2 85.7L960 90L960 0L937.2 0C914.3 0 868.7 0 823 0C777.3 0 731.7 0 686 0C640.3 0 594.7 0 548.8 0C503 0 457 0 411.2 0C365.3 0 319.7 0 274 0C228.3 0 182.7 0 137 0C91.3 0 45.7 0 22.8 0L0 0Z" fill="#00bcc9"></path><path d="M0 53L22.8 54.8C45.7 56.7 91.3 60.3 137 64.8C182.7 69.3 228.3 74.7 274 72.8C319.7 71 365.3 62 411.2 60C457 58 503 63 548.8 67C594.7 71 640.3 74 686 74.7C731.7 75.3 777.3 73.7 823 73C868.7 72.3 914.3 72.7 937.2 72.8L960 73L960 0L937.2 0C914.3 0 868.7 0 823 0C777.3 0 731.7 0 686 0C640.3 0 594.7 0 548.8 0C503 0 457 0 411.2 0C365.3 0 319.7 0 274 0C228.3 0 182.7 0 137 0C91.3 0 45.7 0 22.8 0L0 0Z" fill="#009bcf"></path><path d="M0 37L22.8 35.8C45.7 34.7 91.3 32.3 137 33C182.7 33.7 228.3 37.3 274 39.7C319.7 42 365.3 43 411.2 42.2C457 41.3 503 38.7 548.8 36.3C594.7 34 640.3 32 686 32.7C731.7 33.3 777.3 36.7 823 41C868.7 45.3 914.3 50.7 937.2 53.3L960 56L960 0L937.2 0C914.3 0 868.7 0 823 0C777.3 0 731.7 0 686 0C640.3 0 594.7 0 548.8 0C503 0 457 0 411.2 0C365.3 0 319.7 0 274 0C228.3 0 182.7 0 137 0C91.3 0 45.7 0 22.8 0L0 0Z" fill="#0075c9"></path><path d="M0 35L22.8 34.2C45.7 33.3 91.3 31.7 137 30.7C182.7 29.7 228.3 29.3 274 29.8C319.7 30.3 365.3 31.7 411.2 30.8C457 30 503 27 548.8 25.7C594.7 24.3 640.3 24.7 686 26.7C731.7 28.7 777.3 32.3 823 33.8C868.7 35.3 914.3 34.7 937.2 34.3L960 34L960 0L937.2 0C914.3 0 868.7 0 823 0C777.3 0 731.7 0 686 0C640.3 0 594.7 0 548.8 0C503 0 457 0 411.2 0C365.3 0 319.7 0 274 0C228.3 0 182.7 0 137 0C91.3 0 45.7 0 22.8 0L0 0Z" fill="#0049b5"></path></svg>